<?xml version="1.0" encoding="utf-8"?>
<!-- Generator: Adobe Illustrator 19.0.0, SVG Export Plug-In . SVG Version: 6.00 Build 0)  -->
<svg version="1.1" id="Capa_1" xmlns="http://www.w3.org/2000/svg" xmlns:xlink="http://www.w3.org/1999/xlink" x="0px" y="0px"
	 viewBox="0 0 118.9 145.9" style="enable-background:new 0 0 118.9 145.9;" xml:space="preserve">
<style type="text/css">
	.st0{fill:#155946;}
	.st1{fill:#165947;}
	.st2{fill:#155947;}
	.st3{fill:#185A48;}
	.st4{fill:#F5F7F7;}
	.st5{fill:#FAFCFB;}
	.st6{fill:#EBF0EF;}
	.st7{fill:#E33629;stroke:#E33629;stroke-miterlimit:10;}
</style>
<g id="XMLID_10_">
	<path id="XMLID_22_" class="st0" d="M89.4,98.6c0,14-0.1,28,0.1,42c0,3.8-1.1,5.4-5.1,5.3c-14.2-0.3-11.8,1.7-12-11.8
		c-0.1-5.2-0.1-10.3,0-15.5c0.1-3.1-1.1-4.6-4.3-4.5c-5.7,0.1-11.3,0.2-17,0c-3.7-0.1-5.1,1.2-5,4.9c0.2,7.3-0.1,14.7,0.1,22
		c0.1,3.7-1.3,5-4.9,4.9c-14.6-0.3-12,1.7-12.1-11.6c-0.1-25.5,0-51,0-76.5c0-9.2,2.9-12.1,12.3-12.1c12.3,0,24.7,0,37,0
		c7.6,0,10.9,3.4,10.9,11C89.4,70.6,89.4,84.6,89.4,98.6z"/>
	<path id="XMLID_21_" class="st1" d="M94.2,112.5c0-9.3,0.1-18.6-0.1-27.9c-0.1-3.9,1.4-5.4,5.3-5.1c2.8,0.2,5.7,0,8.5,0.1
		c7,0.1,10.7,3.3,10.8,10.2c0.3,15.3,0.3,30.6,0,45.9c-0.1,6.6-3.9,10.1-10.5,10.1c-16.6,0-13.7,2.2-14-13.3
		C94.1,125.8,94.2,119.1,94.2,112.5z"/>
	<path id="XMLID_20_" class="st2" d="M24.4,113.3c0,9.1-0.1,18.3,0.1,27.4c0.1,3.9-1.4,5.5-5.3,5.2c-3.3-0.2-6.7,0.1-10-0.2
		c-5.3-0.4-9-3.6-9-8.8c-0.2-16.3-0.2-32.6,0-48.9c0-4,2.5-7.1,6.4-8c5-1.2,10.3-0.6,15.4-0.3c2.8,0.2,2.4,2.8,2.4,4.7
		C24.4,94,24.4,103.6,24.4,113.3z"/>
	<path id="XMLID_18_" class="st3" d="M51,132.3c0-2.8,0.2-5.7,0-8.5c-0.3-4,1.5-5.1,5.3-5.1c12.9,0.3,11.5-1.7,11.6,11.3
		c0,3.7-0.1,7.3,0,11c0.1,3.3-1.1,4.9-4.6,4.9C48.3,145.6,51.3,147.7,51,132.3z"/>
	<path id="XMLID_13_" class="st4" d="M59.4,69.6c4.1,0,8.3,0,12.4,0c1.6,0,3.1,0.1,3.2,2.2c0.1,2-1.4,2.6-3,2.6
		c-8.6,0.1-17.2,0.1-25.8,0c-1.6,0-2.9-1-2.7-2.8c0.2-1.7,1.5-1.9,3-1.9C50.8,69.6,55.1,69.6,59.4,69.6z"/>
	<path id="XMLID_12_" class="st5" d="M59.4,92.5c2.8,0,5.6,0,8.5,0c1.6,0,3.1,0.3,3.1,2.4c0,1.8-1.4,2.2-2.8,2.2
		c-6,0.1-12,0.1-17.9,0c-1.4,0-2.7-0.7-2.6-2.4c0.1-1.7,1.3-2.2,2.8-2.2C53.4,92.5,56.4,92.5,59.4,92.5z"/>
	<path id="XMLID_11_" class="st6" d="M107.1,108.6c0,2.8,0.4,6.7-2.6,6.5c-2.5-0.1-2.4-3.2-2.4-6.3c0-1.3-0.1-3.3,0-4.6
		c0.1-1.7,0.5-3.5,2.7-3.4c2.2,0.2,2.3,2,2.2,3.7C107,105.7,107.1,107.1,107.1,108.6z"/>
</g>
<path id="XMLID_9_" class="st6" d="M16.3,108.9c0,2.8,0.4,6.7-2.6,6.5c-2.5-0.1-2.4-3.2-2.4-6.3c0-1.3-0.1-3.3,0-4.6
	c0.1-1.7,0.5-3.5,2.7-3.4c2.2,0.2,2.3,2,2.2,3.7C16.3,106,16.3,107.4,16.3,108.9z"/>
<g id="XMLID_6_">
	<path id="XMLID_5_" class="st7" d="M53.5,11.6l5.3-10.1c0.3-0.6,1.3-0.6,1.6,0l4.7,10.3c0.1,0.3,0.4,0.4,0.6,0.5L77,14.4
		c0.7,0.1,1,1,0.4,1.5L69,23.6c-0.2,0.2-0.3,0.5-0.3,0.8l1.6,11.3c0.1,0.7-0.7,1.2-1.3,0.9l-9.9-5.6c-0.3-0.1-0.6-0.1-0.8,0l-10.2,5
		c-0.6,0.3-1.4-0.2-1.2-1l2.2-11.2c0.1-0.3,0-0.6-0.2-0.8L41,14.9c-0.5-0.5-0.2-1.4,0.5-1.5l11.3-1.3C53.1,12,53.4,11.9,53.5,11.6z"
		/>
	<path id="XMLID_7_" class="st7" d="M87.2,24.1l2.3-4c0.1-0.3,0.5-0.2,0.6,0l1.8,4.3c0,0.1,0.1,0.2,0.3,0.2l4.5,1
		c0.3,0.1,0.4,0.4,0.2,0.6l-3.5,3c-0.1,0.1-0.1,0.2-0.1,0.3l0.5,4.6c0,0.3-0.3,0.5-0.5,0.3l-4-2.4C89.1,32,89,32,88.9,32l-4.2,1.9
		c-0.3,0.1-0.6-0.1-0.5-0.4l1.1-4.5c0-0.1,0-0.2-0.1-0.3L82,25.2c-0.2-0.2-0.1-0.6,0.2-0.6l4.6-0.4C87,24.2,87.1,24.2,87.2,24.1z"/>
	<path id="XMLID_25_" class="st7" d="M106.1,34.9l2.3-4c0.1-0.3,0.5-0.2,0.6,0l1.8,4.3c0,0.1,0.1,0.2,0.3,0.2l4.5,1
		c0.3,0.1,0.4,0.4,0.2,0.6l-3.5,3c-0.1,0.1-0.1,0.2-0.1,0.3l0.5,4.6c0,0.3-0.3,0.5-0.5,0.3l-4-2.4c-0.1-0.1-0.2-0.1-0.3,0l-4.2,1.9
		c-0.3,0.1-0.6-0.1-0.5-0.4l1.1-4.5c0-0.1,0-0.2-0.1-0.3l-3.1-3.4c-0.2-0.2-0.1-0.6,0.2-0.6l4.6-0.4C106,35.1,106.1,35,106.1,34.9z"
		/>
	<path id="XMLID_16_" class="st7" d="M30.6,24.1l-2.3-4c-0.1-0.3-0.5-0.2-0.6,0l-1.8,4.3c0,0.1-0.1,0.2-0.3,0.2l-4.5,1
		c-0.3,0.1-0.4,0.4-0.2,0.6l3.5,3c0.1,0.1,0.1,0.2,0.1,0.3l-0.5,4.6c0,0.3,0.3,0.5,0.5,0.3l4-2.4c0.1-0.1,0.2-0.1,0.3,0l4.2,1.9
		c0.3,0.1,0.6-0.1,0.5-0.4L32.6,29c0-0.1,0-0.2,0.1-0.3l3.1-3.4c0.2-0.2,0.1-0.6-0.2-0.6l-4.6-0.4C30.8,24.2,30.7,24.2,30.6,24.1z"
		/>
	<path id="XMLID_15_" class="st7" d="M11.6,34.9l-2.3-4c-0.1-0.3-0.5-0.2-0.6,0l-1.8,4.3c0,0.1-0.1,0.2-0.3,0.2l-4.5,1
		c-0.3,0.1-0.4,0.4-0.2,0.6l3.5,3c0.1,0.1,0.1,0.2,0.1,0.3L5.1,45c0,0.3,0.3,0.5,0.5,0.3l4-2.4c0.1-0.1,0.2-0.1,0.3,0l4.2,1.9
		c0.3,0.1,0.6-0.1,0.5-0.4l-1.1-4.5c0-0.1,0-0.2,0.1-0.3l3.1-3.4c0.2-0.2,0.1-0.6-0.2-0.6l-4.6-0.4C11.8,35.1,11.7,35,11.6,34.9z"/>
</g>
</svg>
